# xmcd
#
# Track frame offsets:
#	150
#	10576
#	30563
#	43256
#	64476
#	87012
#	95226
#	114944
#	129050
#	147776
#	158047
#	173060
#	192946
#	205627
#	223740
#	238560
#	255226
#	271796
#
# Disc length: 3900 seconds
#
# Revision: 0
# Processed by: cddbd v1.5.2PL0 Copyright (c) Steve Scherf et al.
# Submitted via: EasyCDDAExtractor 16.0.6.1
#
DISCID=e90f3a12
DTITLE=Συλλογικός δίσκος - Κρήτη μου όμορφο νησί 4
DYEAR=1900
DGENRE=Κρητική
TTITLE0=Άνευ ερμηνευτού - Ρουματιανή σούστα [ορχ., παραδοσιακό]
TTITLE1=Κατράκης Φώτης - Συρτός κολυμπαριανός [Ν. Σαριδάκης-Γ. Κουτσουρέλης]
TTITLE2=Άνευ ερμηνευτού - Συρτός σεληνιώτικος [ορχ., παραδοσιακό]
TTITLE3=Παπαδάκης Μάρκος - Συρτός του Μανώλη Θοδωράκη [παραδοσιακό]
TTITLE4=Παπαδάκης Μάρκος - Συρτός μεσογειανός [παραδοσιακό]
TTITLE5=Άνευ ερμηνευτού - Συρτός περβολιανός [ορχ., παραδοσιακό]
TTITLE6=Τσαγκαράκης Γιώργος ή Τζιμάκης - Πάρε καρότσα κι έλα [παραδοσιακό]
TTITLE7=Κουκλάκης Κάρολος - Λουσακιανό κρασί [παραδοσιακό]
TTITLE8=Παπαδάκης Κώστας ή Ναύτης - Συρτός χανιώτικος [παραδοσιακό]
TTITLE9=Άνευ ερμηνευτού - Όρτσες [ορχ., παραδοσιακό]
TTITLE10=Γιακουμάκης Ανδρέας - Όντες την αρχηνίζανε [παραδοσιακό]
TTITLE11=Άνευ ερμηνευτού - Ανωγειανός πηδηχτός [ορχ., παραδοσιακό]
TTITLE12=Αεράκης Νικηφόρος - Ανωγειανό συρτό [παραδοσιακό]
TTITLE13=Σγουρός Δημήτρης - Τραγούδι της σούσας [παραδοσιακό]
TTITLE14=Άνευ ερμηνευτού - Πηδηχτός σητείας [παραδοσιακό]
TTITLE15=Σταματάκης Χαρίδημος - Στειακές κοντυλιές [παραδοσιακό]
TTITLE16=Άνευ ερμηνευτού - Κοντυλιές Καλογερίδη [ορχ., παραδοσιακό]
TTITLE17=Μαλλιωτάκης Μανώλης - Μπουχλουμπού [παραδοσιακό]
EXTD=
EXTT0=
EXTT1=
EXTT2=
EXTT3=
EXTT4=
EXTT5=
EXTT6=
EXTT7=
EXTT8=
EXTT9=
EXTT10=
EXTT11=
EXTT12=
EXTT13=
EXTT14=
EXTT15=
EXTT16=
EXTT17=
PLAYORDER=
